<svg xmlns="http://www.w3.org/2000/svg" viewBox="0 0 215.4 48.5" enable-background="new 0 0 215.4 48.5"><style type="text/css">.st0{fill:none;} .st1{fill:#6E6F6E;} .st2{fill:none;stroke:#6E6F6E;stroke-width:0.5;stroke-linecap:round;stroke-linejoin:round;stroke-miterlimit:10;} .st3{fill:#5FCDF8;} .st4{fill:#880085;} .st5{fill:#272726;} .st6{fill:#AAD400;} .st7{fill:#D40042;} .st8{fill:#0061B7;} .st9{fill:#4E6E9C;} .st10{fill:#FFFFFF;}</style><g id="XMLID_974_"><path id="XMLID_981_" d="M174.7 19.8v-8.4c0-.6-.6-.9-2.8-.9-2.6 0-2.7.5-2.8.9v8.3c-5.2 1.3-9 5.9-9 11.5 0 6.5 5.3 11.8 11.8 11.8 6.5 0 11.8-5.3 11.8-11.8.1-5.5-3.8-10.1-9-11.4z" class="st0"/><path d="M171.9 43.3c-6.7 0-12.1-5.4-12.1-12.1 0-5.5 3.7-10.3 9-11.7v-8.2h.5V20h-.2c-5.2 1.3-8.8 5.9-8.8 11.2 0 6.4 5.2 11.6 11.6 11.6 6.4 0 11.6-5.2 11.6-11.6 0-5.4-3.6-10-8.8-11.2h-.2v-8.6h.5v8.2c5.3 1.4 9 6.2 9 11.7 0 6.6-5.4 12-12.1 12z" class="st1"/></g><path id="XMLID_1212_" d="M135.5 43.4h-15.9c-.1 0-.2-.1-.2-.2v-23l-2.4-2.4c-.1-.1-.1-.3 0-.4s.3-.1.4 0l2.5 2.5s.1.1.1.2v22.8h15.4V17.6c0-.1.1-.2.2-.2s.2.1.2.2v25.5c-.1.2-.2.3-.3.3z" class="st1"/><g id="XMLID_1474_"><g id="XMLID_960_"><path d="M74.8 43.4c-.1 0-.2-.1-.2-.2l-6.1-23-2.1-2.4c-.1-.1-.1-.3 0-.4.1-.1.3-.1.4 0l2.1 2.4s0 .1.1.1L75 43c.1.2 0 .3-.2.4zM82.7 43.4s-.1 0 0 0c-.2 0-.3-.2-.2-.3l7.2-25.5c0-.1.2-.2.3-.2.1 0 .2.2.2.3L83 43.2c-.1.1-.2.2-.3.2z" class="st1"/></g><path d="M86.1 43.4H71.9c-.1 0-.2-.1-.2-.2s.1-.2.2-.2H86c.1 0 .2.1.2.2s0 .2-.1.2z" class="st1"/></g><path id="XMLID_1307_" d="M39.9 43.4H20.7c-.1 0-.2-.1-.2-.2-.4-1.6-.1-3.3.3-4.2.4-.8 2.5-7.6 5.9-18.7.1-.2.1-.3.1-.4v-4.6c0-.1.1-.2.2-.2s.2.1.2.2v4.6s0 .1 0 .1l-.1.4c-2 6.5-5.4 17.7-5.9 18.8-.4.8-.6 2.2-.3 3.7h18.8c.4-1.4.3-2.6-.4-3.7l-6.8-19s0-.1 0-.1v-4.8c0-.1.1-.2.2-.2s.2.1.2.2V20l6.8 19c.7 1.2.9 2.7.3 4.3.1 0 0 .1-.1.1z" class="st1"/><circle id="XMLID_11_" cx="12.9" cy="9.2" r="3.9" class="st9"/><circle id="XMLID_12_" cx="60.1" cy="9.2" r="3.9" class="st9"/><circle id="XMLID_13_" cx="108.5" cy="9.2" r="3.9" class="st9"/><circle id="XMLID_14_" cx="156.5" cy="9.2" r="3.9" class="st9"/><path d="M13.6 6.7v4.7H13v-4l-1.1.7-.3-.5 1.4-.9h.6zM60.8 6.8c.2.2.3.3.5.5s.2.4.2.7c0 .3-.1.6-.2.8s-.3.5-.6.8c-.3.3-.7.7-1.2 1.3h2.1l-.1.5h-2.8v-.5c.6-.6 1.1-1.1 1.3-1.4.3-.3.4-.6.6-.8.1-.2.2-.5.2-.7 0-.2-.1-.4-.2-.6-.1-.1-.3-.2-.6-.2-.2 0-.4 0-.5.1-.1.1-.3.2-.5.4l-.4-.3c.2-.3.4-.4.6-.5s.5-.2.8-.2c.3 0 .5 0 .8.1zM109.3 6.8c.2.1.4.3.5.4.1.2.2.4.2.6 0 .3-.1.5-.2.7-.2.2-.4.3-.7.4.3 0 .6.1.8.3.2.2.3.5.3.8 0 .3-.1.5-.2.7-.1.2-.3.4-.6.5-.2.1-.5.2-.8.2-.3 0-.5-.1-.8-.2-.2-.1-.4-.3-.6-.5l.4-.4c.2.2.3.3.5.3.2.1.3.1.5.1.3 0 .5-.1.7-.2s.3-.4.3-.7c0-.3-.1-.5-.2-.7-.2-.1-.4-.2-.7-.2h-.3l.1-.5h.2c.2 0 .4-.1.6-.2.2-.1.2-.3.2-.6 0-.2-.1-.4-.2-.5-.1-.1-.3-.2-.6-.2-.2 0-.3 0-.5.1s-.3.2-.5.3l-.3-.4c.4-.4.8-.6 1.3-.6.1.4.4.4.6.5zM158 9.8v.5h-.6v1.2h-.6v-1.2h-2v-.5l1.4-3.1.5.2-1.3 2.9h1.3l.1-1.3h.6v1.3h.6z" class="st10"/><path d="M198.6 22.7h.8v17.7h-.8zM200.9 39.8l-1.9 3.3-1.9-3.3zM200.9 23.2L199 20l-1.9 3.2zM206.3 33l-.1.2c-.2.1-.4.2-.5.2-.1 0-.3.1-.4.1-.2 0-.4-.1-.5-.2-.1-.1-.2-.2-.2-.4 0-.1 0-.1 0-.2s0-.2.1-.2l.4-1.5c0-.1.1-.2.1-.3s0-.2 0-.2c0-.2 0-.3-.1-.4-.1-.1-.2-.2-.4-.2s-.3.1-.5.2-.4.3-.5.4l-.7 2.9h-.7l1.2-5c0-.1 0-.1 0-.2 0 0 0-.1 0-.1 0-.1 0-.2 0-.2s-.1-.1-.1-.1-.1 0-.2 0-.2 0-.3 0l.1-.2 1.5-.1v.1l-.6 2.7c.3-.2.5-.4.7-.5.2-.1.4-.2.7-.2.2 0 .4.1.6.2.1.1.2.3.2.6 0 0 0 .1 0 .2s0 .2-.1.4l-.3 1.3c0 .1 0 .2-.1.3 0 .1 0 .2 0 .3 0 .1 0 .2.1.3.1.1.2.1.3.1 0 0 .1 0 .2 0s0-.2.1-.3z" class="st5"/></svg>